<svg width="26" height="26" viewBox="0 0 26 26" fill="none" xmlns="http://www.w3.org/2000/svg">
<path d="M7.35507 13.9491C8.28059 14.8746 9.49218 15.3357 10.7038 15.3357V13.9996C9.79508 13.9996 8.94024 13.6462 8.30078 13.0034C7.65796 12.3605 7.30457 11.5057 7.30457 10.6004H5.96845C5.96845 11.8153 6.42954 13.0269 7.35507 13.9491ZM21.3658 20.3941C21.3961 20.7913 20.861 21.2793 20.4201 21.3398L15.3583 16.2646L16.294 15.329L21.3658 20.3941ZM16.6507 10.5431C16.6642 12.1586 16.0449 13.6798 14.9107 14.8275C13.7732 15.9751 12.2587 16.6045 10.6432 16.6045C10.6264 16.6045 10.6095 16.6045 10.5894 16.6045C7.3315 16.5776 4.65926 13.9053 4.63234 10.6475C4.61887 9.03202 5.23813 7.51079 6.37232 6.36313C7.50988 5.21548 9.02437 4.58276 10.6398 4.58276C10.6567 4.58276 10.6735 4.58276 10.6937 4.58276C13.9515 4.61642 16.6238 7.2853 16.6507 10.5431ZM22.6952 20.2898L22.6582 19.7984L22.3082 19.4484L17.2363 14.3832L17.0445 14.1914C17.6536 13.1111 17.9969 11.8591 17.9868 10.5297C17.9532 6.54151 14.6953 3.28366 10.7071 3.25C10.687 3.25 10.6634 3.25 10.6432 3.25C6.56752 3.25 3.26592 6.5718 3.29957 10.6576C3.33323 14.6458 6.59108 17.9036 10.5793 17.9373C10.5995 17.9373 10.623 17.9373 10.6432 17.9373C11.9423 17.9373 13.1606 17.6007 14.2174 17.0084L14.4126 17.2036L19.4744 22.2788L19.9456 22.75L20.6052 22.6591C21.6687 22.5144 22.7895 21.4677 22.6952 20.2898Z" fill="black"/>
</svg>
