<svg width="74" height="37" viewBox="0 0 74 37" fill="none" xmlns="http://www.w3.org/2000/svg">
    <g id="LOGO">
        <path id="Vector" d="M37.1943 36.4308C35.4661 36.4308 33.9667 36.3907 32.4714 36.2942C31.8096 36.2498 31.1519 36.2136 30.4941 36.1532C29.4441 36.0606 28.3982 35.9481 27.3564 35.8072C26.2424 35.6569 25.1312 35.4825 24.0227 35.284C22.413 34.9867 20.8169 34.6258 19.2345 34.2019C17.0687 33.6288 14.9459 32.9081 12.8815 32.0454C10.9333 31.2348 9.06507 30.2492 7.30072 29.1003C5.96911 28.2315 4.7364 27.224 3.62377 26.0948C2.5098 24.982 1.59538 23.6909 0.919212 22.277C0.309041 20.9981 -0.00489887 19.6012 5.77924e-05 18.1884C0.00501446 16.775 0.3287 15.3806 0.947782 14.1057C1.509 12.9352 2.23975 11.851 3.11719 10.8871C4.3015 9.58114 5.64648 8.42562 7.121 7.44725C8.59608 6.46768 10.1496 5.60793 11.7662 4.87636C13.4221 4.12121 15.1235 3.46686 16.8608 2.91705C18.6421 2.34973 20.4479 1.871 22.2781 1.48878C23.5038 1.22729 24.705 1.00999 25.9265 0.816885C27.148 0.623778 28.2511 0.486996 29.4155 0.374345C30.3429 0.285826 31.2703 0.197308 32.1977 0.140982C33.5746 0.0565217 34.9513 -0.00386553 36.3282 0.000192968C37.1452 0.000192968 37.9338 0.000192968 38.7302 0.000192968C39.5272 0.000192968 40.3648 0.0605236 41.1612 0.100779C41.6351 0.100779 42.1091 0.140979 42.583 0.181235C43.3594 0.245568 44.1397 0.31802 44.916 0.40248C45.6924 0.486996 46.452 0.571453 47.2161 0.6801C48.0331 0.804817 48.8869 0.949664 49.7245 1.08244C50.9258 1.28361 52.1143 1.54511 53.2995 1.83074C56.0696 2.48761 58.778 3.37872 61.3927 4.49415C63.1799 5.25342 64.8981 6.16197 66.5282 7.20983C67.9038 8.08981 69.1781 9.11513 70.3276 10.2675C71.1847 11.13 71.9298 12.0935 72.5458 13.1361C73.1501 14.1397 73.5795 15.2357 73.8167 16.3788C73.9743 17.1626 74.0306 17.9629 73.9843 18.7604C73.8557 20.5165 73.2748 22.2112 72.2969 23.6849C71.6308 24.7127 70.8422 25.6582 69.9477 26.5012C68.7314 27.654 67.3937 28.6752 65.9562 29.5472C64.1278 30.6617 62.2031 31.6149 60.2037 32.3953C58.2244 33.1741 56.1966 33.8289 54.1326 34.3549C52.4657 34.7854 50.7827 35.1595 49.083 35.4288C47.7346 35.6586 46.3824 35.8313 45.0218 35.992C42.4226 36.2788 39.8095 36.4253 37.1943 36.4308ZM36.9001 33.5745C38.3916 33.5745 39.7967 33.53 41.2024 33.4538C42.9139 33.3529 44.6175 33.1999 46.3172 32.9827C47.4667 32.8379 48.6079 32.6624 49.7407 32.4556C51.2227 32.1874 52.6935 31.8633 54.1532 31.4821C56.4405 30.892 58.6772 30.1236 60.8414 29.1847C62.608 28.4174 64.2904 27.4736 65.8621 26.3684C66.8963 25.6456 67.8425 24.807 68.6813 23.8703C69.4209 23.0553 70.0235 22.129 70.4668 21.1264C71.1479 19.6061 71.2777 17.9016 70.8344 16.2984C70.5631 15.3326 70.1265 14.4196 69.5434 13.5988C68.7553 12.4938 67.808 11.5072 66.7326 10.6699C65.7179 9.87796 64.6369 9.17266 63.5007 8.5617C61.4312 7.43267 59.2558 6.503 57.0047 5.78563C54.875 5.09459 52.7024 4.53693 50.5009 4.11595C49.1687 3.85445 47.8249 3.64121 46.4804 3.46017C45.4468 3.32339 44.4092 3.21074 43.3716 3.13428C42.6566 3.07796 41.9415 3.01763 41.2269 2.97738C39.5923 2.88085 37.9583 2.84866 36.3241 2.86072C33.8852 2.8741 31.4485 3.00836 29.0233 3.26306C28.0509 3.36765 27.0827 3.50042 26.1144 3.64121C25.1462 3.78205 24.1126 3.9671 23.1198 4.16426C21.2761 4.53128 19.4529 4.99192 17.6575 5.54421C15.6184 6.17196 13.6345 6.96177 11.7254 7.90587C10.129 8.68301 8.62226 9.62722 7.23127 10.7222C6.3178 11.4426 5.49488 12.2679 4.78001 13.1804C4.13547 13.9919 3.63157 14.9027 3.28878 15.876C2.87353 17.0515 2.77635 18.3134 3.00686 19.537C3.16753 20.3476 3.45274 21.1286 3.85261 21.8547C4.38058 22.8063 5.04215 23.68 5.81773 24.4494C6.80695 25.4268 7.9031 26.2928 9.08612 27.0326C10.5256 27.9436 12.0413 28.7328 13.6169 29.3898C16.1131 30.4313 18.6968 31.2567 21.3385 31.8562C22.9727 32.2346 24.6069 32.5401 26.2411 32.7858C27.5198 32.9789 28.8027 33.1319 30.0937 33.2525C31.1845 33.3529 32.2835 33.4297 33.3621 33.4818C34.5837 33.5339 35.7848 33.558 36.9001 33.5745Z" fill="black"/>
        <path id="Vector_2" d="M24.9854 20.7693C24.9057 20.7693 24.8341 20.7693 24.7624 20.7693C24.2449 20.7693 23.7274 20.7693 23.2099 20.7693C23.1348 20.772 23.0606 20.7528 22.9958 20.7143C22.9309 20.6759 22.8782 20.6193 22.8437 20.5517C22.2824 19.6694 21.7171 18.7948 21.1519 17.9161L20.8971 17.5131C20.8215 17.5131 20.8175 17.5493 20.8175 17.5856C20.8175 17.6219 20.8175 17.7509 20.8175 17.8355V23.9249C20.8299 24.0359 20.8204 24.1485 20.7896 24.2556C20.7545 24.2666 20.7186 24.2748 20.6821 24.2798H18.0907C18.06 24.2737 18.0305 24.2628 18.0031 24.2474C17.999 24.1963 17.999 24.1452 18.0031 24.0941C18.0031 24.0177 18.0031 23.9452 18.0031 23.8727V12.1853C18.0654 12.1657 18.1294 12.1523 18.1942 12.1449H18.9585C19.5118 12.1449 20.0652 12.1449 20.6185 12.1449C20.6897 12.1387 20.7613 12.1536 20.8242 12.188C20.8872 12.2224 20.9388 12.2747 20.9727 12.3384C21.6123 13.3486 22.2585 14.3575 22.9114 15.365L23.8628 16.8441C23.8986 16.9045 23.9464 16.9569 23.9901 17.0174C24.1016 16.9811 24.1295 16.8844 24.1772 16.8119L25.7337 14.3938L27.0235 12.3787C27.1787 12.1369 27.1469 12.149 27.4216 12.1449H29.7065H29.9613C29.975 12.198 29.9856 12.2519 29.9931 12.3062C29.9971 12.3706 29.9971 12.4352 29.9931 12.4996V23.909C30.0087 24.0254 29.9978 24.1441 29.9613 24.2556C29.7145 24.2996 27.4335 24.2957 27.1748 24.2556C27.1748 24.2111 27.1509 24.1589 27.1469 24.1106C27.1429 24.0622 27.1469 23.9249 27.1469 23.832C27.1469 21.8307 27.1469 19.8276 27.1469 17.8234C27.1663 17.7257 27.1552 17.6242 27.115 17.5333C27.0116 17.5333 26.9877 17.6461 26.9478 17.7105C26.5498 18.3229 26.1517 18.9382 25.7536 19.5562C25.5466 19.8787 25.3555 20.205 25.1287 20.5275C25.0929 20.6204 25.0411 20.6929 24.9854 20.7693Z" fill="black"/>
        <path id="Vector_3" d="M47.129 17.1662C47.129 17.2629 47.129 17.3637 47.129 17.4604C47.129 19.6103 47.129 21.769 47.129 23.9377C47.1429 24.0498 47.1321 24.1635 47.0984 24.2723C46.759 24.2921 46.4179 24.2921 46.0786 24.2723C45.7345 24.2723 45.3946 24.2723 45.0504 24.2723C44.7063 24.2723 44.3706 24.2723 44.0307 24.2723C44.0156 24.2289 44.0054 24.1844 44 24.1393V12.1844C44.0674 12.164 44.1372 12.1505 44.2076 12.144H46.7717C46.8421 12.144 46.9131 12.144 46.9835 12.144C47.0328 12.1412 47.0827 12.1506 47.1266 12.1712C47.1712 12.1917 47.2085 12.2227 47.2349 12.261C47.3324 12.3939 47.4383 12.5149 47.5351 12.664L52.6195 19.113C52.6766 19.1855 52.7121 19.274 52.8048 19.3026C52.8974 19.3306 52.871 19.2421 52.871 19.2059C52.871 19.1696 52.871 19.0245 52.871 18.9317V12.5229C52.871 12.4141 52.871 12.3052 52.871 12.1803C52.9407 12.1635 53.0111 12.1513 53.0827 12.144C53.9653 12.144 54.8701 12.144 55.766 12.144C55.837 12.1484 55.908 12.1565 55.9777 12.1682C55.9886 12.2161 55.9958 12.2646 56 12.3133C56 16.2714 56 20.2295 56 24.1877C55.9934 24.2201 55.9813 24.2514 55.9645 24.28C55.8809 24.28 55.7924 24.28 55.704 24.28C54.8479 24.28 53.9918 24.28 53.1399 24.28C53.052 24.2838 52.9642 24.2652 52.8866 24.2267C52.809 24.1888 52.744 24.1317 52.6989 24.0624C51.3073 22.2971 49.9128 20.5317 48.5152 18.7663L47.3673 17.3153C47.3192 17.2508 47.2572 17.1864 47.2043 17.1259L47.129 17.1662Z" fill="black"/>
        <path id="Vector_4" d="M38.3618 24.2871H38.2324C37.8171 24.2871 35.8487 24.2871 35.6448 24.2871C35.6289 24.2388 35.6171 24.1887 35.6095 24.1381C35.6095 24.049 35.6095 23.9566 35.6095 23.8637V15.4204C35.6095 15.3033 35.6095 15.1864 35.6095 15.0855C35.5311 14.9927 35.4449 15.0129 35.3664 15.0129C35.0018 15.0129 34.6332 15.0129 34.2686 15.0129H32.3278C32.2255 15.0292 32.1208 15.0152 32.0259 14.9726C32.0135 14.9237 32.0056 14.8737 32.0024 14.8233C32.0024 13.9883 32.0024 13.1491 32.0024 12.3141C31.9992 12.2725 31.9992 12.2307 32.0024 12.189C32.0495 12.1714 32.098 12.1579 32.1474 12.1487C32.2258 12.1487 32.3082 12.1487 32.3905 12.1487H41.6125C41.7317 12.137 41.8519 12.1452 41.969 12.1729C41.984 12.2145 41.9931 12.2579 41.9968 12.302V14.8394C42.0011 14.881 42.0011 14.9229 41.9968 14.9645C41.907 15.0153 41.8028 15.0325 41.7023 15.0129H39.6638C39.35 15.0129 39.04 15.0129 38.7263 15.0129H38.4484C38.4297 15.0655 38.4152 15.1194 38.4051 15.1743C38.4051 15.267 38.4051 15.3598 38.4051 15.4526C38.4051 18.2711 38.4051 21.0949 38.4051 23.9242C38.4158 24.0468 38.4013 24.1706 38.3618 24.2871Z" fill="black"/>
    </g>
</svg>