<svg width="240" height="240" viewBox="0 0 240 240" fill="none" xmlns="http://www.w3.org/2000/svg">
<path d="M120 204.965C171.4 204.965 213.067 202.532 213.067 199.531C213.067 196.53 171.4 194.098 120 194.098C68.6005 194.098 26.9329 196.53 26.9329 199.531C26.9329 202.532 68.6005 204.965 120 204.965Z" fill="#E4E5E6"/>
<path d="M166.267 45.0527L164.265 68.2127C164.251 68.3592 164.184 68.4954 164.076 68.5954C163.968 68.6955 163.827 68.7523 163.68 68.7551L142.262 68.7935C142.194 68.794 142.127 68.78 142.064 68.7524C142.002 68.7247 141.946 68.6841 141.901 68.6332C141.855 68.5824 141.821 68.5224 141.801 68.4574C141.78 68.3923 141.774 68.3236 141.782 68.2559L144.365 38.1311C144.379 37.9847 144.446 37.8484 144.554 37.7484C144.662 37.6484 144.803 37.5916 144.95 37.5887H159.379L166.267 45.0527Z" fill="#03045E"/>
<g opacity="0.5">
<path d="M166.267 45.0527L164.265 68.2127C164.251 68.3592 164.184 68.4954 164.076 68.5954C163.968 68.6955 163.827 68.7523 163.68 68.7551L142.262 68.7935C142.194 68.794 142.127 68.78 142.064 68.7524C142.002 68.7247 141.946 68.6841 141.901 68.6332C141.855 68.5824 141.821 68.5224 141.801 68.4574C141.78 68.3923 141.774 68.3236 141.782 68.2559L144.365 38.1311C144.379 37.9847 144.446 37.8484 144.554 37.7484C144.662 37.6484 144.803 37.5916 144.95 37.5887H159.379L166.267 45.0527Z" fill="white"/>
</g>
<path opacity="0.2" d="M161.971 52.0368L146.851 52.1088C146.732 52.108 146.618 52.1513 146.529 52.2302C146.44 52.3091 146.384 52.418 146.371 52.536V52.6752C146.366 52.7295 146.372 52.7845 146.389 52.8363C146.407 52.8881 146.435 52.9355 146.472 52.9755C146.509 53.0155 146.555 53.0471 146.605 53.0681C146.656 53.0892 146.71 53.0992 146.765 53.0976L161.885 53.0256C162.003 53.0263 162.118 52.983 162.207 52.9041C162.295 52.8252 162.352 52.7163 162.365 52.5984V52.4592C162.37 52.4048 162.364 52.3499 162.347 52.2981C162.329 52.2463 162.301 52.1988 162.264 52.1588C162.226 52.1188 162.181 52.0873 162.131 52.0662C162.08 52.0452 162.026 52.0351 161.971 52.0368Z" fill="black"/>
<path opacity="0.2" d="M161.635 56.0832L146.505 56.16C146.387 56.1592 146.272 56.2025 146.183 56.2814C146.095 56.3603 146.038 56.4692 146.025 56.5872V56.7264C146.019 56.7805 146.025 56.8353 146.042 56.8871C146.058 56.9389 146.086 56.9865 146.123 57.0266C146.16 57.0666 146.205 57.0983 146.255 57.1194C146.306 57.1405 146.36 57.1505 146.414 57.1488L161.534 57.0768C161.653 57.0775 161.768 57.0342 161.856 56.9553C161.945 56.8764 162.001 56.7675 162.014 56.6496V56.5104C162.02 56.4568 162.015 56.4026 161.999 56.3513C161.983 56.2999 161.956 56.2525 161.92 56.2122C161.884 56.1719 161.84 56.1396 161.791 56.1174C161.742 56.0952 161.689 56.0835 161.635 56.0832Z" fill="black"/>
<path opacity="0.2" d="M161.299 60.1248L146.179 60.1968C146.06 60.196 145.946 60.2393 145.857 60.3182C145.768 60.3971 145.712 60.506 145.699 60.624V60.7632C145.693 60.8175 145.698 60.8725 145.715 60.9246C145.732 60.9766 145.76 61.0244 145.797 61.0649C145.833 61.1053 145.878 61.1374 145.929 61.1591C145.979 61.1807 146.033 61.1914 146.088 61.1904L161.208 61.1136C161.326 61.1143 161.441 61.071 161.53 60.9921C161.618 60.9132 161.675 60.8043 161.688 60.6864V60.5472C161.693 60.4932 161.687 60.4387 161.67 60.3872C161.653 60.3358 161.625 60.2885 161.588 60.2486C161.552 60.2087 161.507 60.1771 161.457 60.1557C161.407 60.1343 161.353 60.1238 161.299 60.1248Z" fill="black"/>
<path d="M159.394 37.5456L158.798 44.5344C158.79 44.6021 158.797 44.6707 158.817 44.7358C158.837 44.8008 158.871 44.8608 158.917 44.9117C158.962 44.9625 159.018 45.0031 159.08 45.0308C159.143 45.0584 159.21 45.0725 159.278 45.072H166.243L159.394 37.5456Z" fill="#03045E"/>
<path opacity="0.7" d="M159.394 37.5456L158.798 44.5344C158.79 44.6021 158.797 44.6707 158.817 44.7358C158.837 44.8008 158.871 44.8608 158.917 44.9117C158.962 44.9625 159.018 45.0031 159.08 45.0308C159.143 45.0584 159.21 45.0725 159.278 45.072H166.243L159.394 37.5456Z" fill="white"/>
<g opacity="0.7">
<path d="M98.1934 85.6224H76.8718C75.8581 85.6407 74.8521 85.4428 73.9208 85.042C72.9895 84.6411 72.1543 84.0464 71.4708 83.2975C70.7874 82.5487 70.2713 81.6628 69.9569 80.6988C69.6426 79.7349 69.5372 78.715 69.6478 77.7072L72.5566 44.4288C72.7757 42.2842 73.7728 40.2942 75.3595 38.8349C76.9462 37.3756 79.0125 36.5481 81.1678 36.5088H102.489C103.502 36.4938 104.505 36.6943 105.434 37.097C106.363 37.4997 107.195 38.0953 107.876 38.8443C108.557 39.5934 109.071 40.4787 109.384 41.4415C109.696 42.4043 109.801 43.4226 109.689 44.4288L106.776 77.7072C106.558 79.8468 105.565 81.8329 103.984 83.291C102.403 84.7491 100.344 85.5783 98.1934 85.6224Z" fill="#03045E"/>
<path opacity="0.5" d="M98.1934 85.6224H76.8718C75.8581 85.6407 74.8521 85.4428 73.9208 85.042C72.9895 84.6411 72.1543 84.0464 71.4708 83.2975C70.7874 82.5487 70.2713 81.6628 69.9569 80.6988C69.6426 79.7349 69.5372 78.715 69.6478 77.7072L72.5566 44.4288C72.7757 42.2842 73.7728 40.2942 75.3595 38.8349C76.9462 37.3756 79.0125 36.5481 81.1678 36.5088H102.489C103.502 36.4938 104.505 36.6943 105.434 37.097C106.363 37.4997 107.195 38.0953 107.876 38.8443C108.557 39.5934 109.071 40.4787 109.384 41.4415C109.696 42.4043 109.801 43.4226 109.689 44.4288L106.776 77.7072C106.558 79.8468 105.565 81.8329 103.984 83.291C102.403 84.7491 100.344 85.5783 98.1934 85.6224Z" fill="white"/>
</g>
<path d="M98.1262 81.12H80.8942C80.7105 81.1235 80.5282 81.0874 80.3597 81.0142C80.1911 80.9411 80.0403 80.8325 79.9174 80.696C79.7945 80.5594 79.7023 80.398 79.6473 80.2227C79.5922 80.0474 79.5755 79.8623 79.5982 79.68C79.6336 79.2919 79.8108 78.9304 80.0959 78.6647C80.3811 78.3991 80.7542 78.2478 81.1438 78.24H98.3758C98.5595 78.2365 98.7418 78.2726 98.9104 78.3457C99.0789 78.4189 99.2298 78.5274 99.3527 78.664C99.4756 78.8006 99.5677 78.962 99.6228 79.1373C99.6779 79.3126 99.6946 79.4977 99.6718 79.68C99.6365 80.0681 99.4593 80.4296 99.1741 80.6953C98.889 80.9609 98.5159 81.1121 98.1262 81.12Z" fill="white"/>
<path d="M99.9981 59.712H88.1229C87.939 59.7163 87.7563 59.6807 87.5874 59.6079C87.4184 59.535 87.2672 59.4264 87.1442 59.2897C87.0211 59.1529 86.929 58.9912 86.8743 58.8155C86.8195 58.6399 86.8034 58.4545 86.8269 58.272C86.8612 57.8835 87.0381 57.5214 87.3235 57.2555C87.6089 56.9896 87.9825 56.8388 88.3725 56.832H100.248C100.431 56.8285 100.614 56.8646 100.782 56.9377C100.951 57.0109 101.102 57.1194 101.225 57.256C101.348 57.3926 101.44 57.554 101.495 57.7293C101.55 57.9046 101.566 58.0897 101.544 58.272C101.508 58.6601 101.331 59.0216 101.046 59.2873C100.761 59.5529 100.388 59.7041 99.9981 59.712Z" fill="white"/>
<path d="M99.5086 65.28H83.6686C83.4846 65.2843 83.302 65.2487 83.133 65.1759C82.9641 65.103 82.8129 64.9944 82.6898 64.8577C82.5667 64.7209 82.4747 64.5592 82.4199 64.3835C82.3652 64.2079 82.349 64.0225 82.3726 63.84C82.4068 63.4523 82.583 63.0908 82.8674 62.8251C83.1517 62.5593 83.5242 62.4079 83.9134 62.4H99.7534C99.9371 62.3965 100.119 62.4326 100.288 62.5057C100.456 62.5789 100.607 62.6874 100.73 62.824C100.853 62.9606 100.945 63.122 101 63.2973C101.055 63.4726 101.072 63.6577 101.049 63.84C101.015 64.2277 100.839 64.5891 100.555 64.8549C100.27 65.1206 99.8977 65.272 99.5086 65.28Z" fill="white"/>
<path d="M99.019 70.8864H87.1437C86.96 70.8899 86.7777 70.8538 86.6092 70.7806C86.4406 70.7075 86.2898 70.5989 86.1669 70.4624C86.044 70.3258 85.9519 70.1644 85.8968 69.9891C85.8417 69.8138 85.825 69.6287 85.8477 69.4464C85.8821 69.0579 86.059 68.6958 86.3443 68.4299C86.6297 68.164 87.0034 68.0132 87.3933 68.0064H99.2685C99.4523 68.0029 99.6346 68.039 99.8031 68.1121C99.9716 68.1853 100.122 68.2938 100.245 68.4304C100.368 68.567 100.46 68.7284 100.516 68.9037C100.571 69.079 100.587 69.2641 100.565 69.4464C100.53 69.8349 100.353 70.197 100.068 70.4629C99.7826 70.7287 99.4089 70.8796 99.019 70.8864Z" fill="white"/>
<path d="M98.5294 76.4736H86.6542C86.4705 76.4771 86.2882 76.441 86.1197 76.3678C85.9511 76.2947 85.8003 76.1861 85.6774 76.0495C85.5545 75.913 85.4624 75.7516 85.4073 75.5763C85.3522 75.401 85.3355 75.2159 85.3582 75.0336C85.3936 74.6454 85.5708 74.284 85.8559 74.0183C86.1411 73.7526 86.5142 73.6014 86.9038 73.5936H98.779C98.963 73.5893 99.1457 73.6248 99.3146 73.6977C99.4835 73.7706 99.6347 73.8791 99.7578 74.0159C99.8809 74.1526 99.973 74.3144 100.028 74.49C100.082 74.6657 100.099 74.8511 100.075 75.0336C100.041 75.4221 99.8638 75.7842 99.5785 76.05C99.2931 76.3159 98.9194 76.4668 98.5294 76.4736Z" fill="white"/>
<path opacity="0.3" d="M101.289 54.1824H78.6909L79.8525 40.9248H102.451L101.289 54.1824Z" fill="black"/>
<path d="M135.038 91.1999C135.038 91.4639 135.072 91.6175 135.081 91.8143V92.3615C135.081 92.7167 135.081 93.0767 135.057 93.4271C135.019 94.1375 134.942 94.8671 134.837 95.5535C134.607 96.9833 134.202 98.3794 133.632 99.7103C132.465 102.524 130.341 104.834 127.637 106.234C127.175 106.495 126.674 106.678 126.153 106.776C125.57 106.878 124.971 106.856 124.397 106.714C123.495 106.469 122.663 106.017 121.968 105.394C120.896 104.417 119.976 103.284 119.241 102.034C117.894 99.7656 116.813 97.3496 116.021 94.8335L118.109 93.9647C118.704 95.0111 119.333 96.0959 120.029 97.1183C120.725 98.1407 121.373 99.1535 122.107 100.075C122.761 100.942 123.53 101.717 124.392 102.379C124.653 102.591 124.963 102.735 125.294 102.797C125.376 102.797 125.381 102.797 125.414 102.773C125.448 102.749 125.366 102.773 125.669 102.586C127.427 101.51 128.778 99.8808 129.509 97.9535C129.898 96.9443 130.174 95.8945 130.329 94.8239C130.444 93.9922 130.82 93.2185 131.404 92.6146C131.987 92.0106 132.747 91.6077 133.574 91.4639L135.038 91.1999Z" fill="#EEC8C0"/>
<path d="M116.337 95.6975C114.897 94.5455 114.897 92.3375 114.897 92.3375L119.529 91.4447L118.041 95.0351L116.337 95.6975Z" fill="#EEC8C0"/>
<path d="M119.558 91.4543L114.926 92.3423L115.445 88.9631L118.766 87.6719L119.558 91.4543Z" fill="#EEC8C0"/>
<path d="M116.112 85.4399C116.61 85.6627 117.134 85.8239 117.672 85.9199C117.806 85.9199 117.936 85.9631 118.07 85.9727C122.899 86.5535 127.699 81.7391 128.928 74.9903C130.176 68.0735 127.181 61.7183 122.208 60.8255C117.235 59.9327 112.209 64.8191 110.952 71.7407C109.848 77.9327 112.104 83.6447 116.112 85.4399ZM113.534 72.2111C114.571 66.5087 117.6 62.1935 120.542 61.9823C120.758 61.9583 120.975 61.9583 121.19 61.9823C121.622 62.0164 122.052 62.0773 122.477 62.1647C125.083 62.6927 127.536 68.0975 126.413 74.2991C125.385 80.1599 121.742 84.5759 118.185 84.5903C117.944 84.5966 117.703 84.5789 117.465 84.5375H117.417H117.249L117.144 84.5135C116.904 84.4609 116.672 84.3786 116.453 84.2687C113.803 82.9583 112.512 77.8895 113.534 72.2255V72.2111Z" fill="#03045E"/>
<path opacity="0.4" d="M116.03 84.2015C116.027 84.1824 116.027 84.163 116.03 84.1439L117.902 84.5807C121.766 84.5807 125.342 80.1359 126.417 74.3327C127.56 68.1311 125.16 62.7551 122.318 62.1983C121.857 62.1058 121.39 62.0401 120.921 62.0015C120.53 61.9475 120.136 61.917 119.74 61.9103C116.544 62.0879 113.126 66.4223 112.209 72.1487C111.345 77.4671 112.656 83.3375 116.03 84.2015Z" fill="#FAFAFA"/>
<path d="M113.933 101.635C115.785 103.498 116.813 101.688 116.813 101.688L116.961 99.8111L117.633 91.3583L117.84 88.7471L117.883 88.2671L118.061 86.0111L118.171 84.6047L118.2 84.2687L116.453 84.1919C116.45 84.211 116.45 84.2304 116.453 84.2495C116.409 84.3935 116.289 84.8303 116.117 85.4687C116.073 85.6511 116.016 85.8479 115.963 86.0687C115.641 87.2879 115.214 88.9967 114.801 90.8447C113.803 95.3135 112.905 100.603 113.933 101.635Z" fill="#263238"/>
<path d="M131.774 143.472C131.774 143.472 132.158 156.955 132.254 160.488C132.542 171.888 135.59 195.254 135.59 195.254L139.526 195.144C139.526 195.144 140.688 171.653 138.917 162.206C138.852 161.844 138.852 161.474 138.917 161.112L141.657 144.24L131.774 143.472Z" fill="#EEC8C0"/>
<path d="M141.888 142.93C141.888 142.93 144.446 153.49 147.072 159.754C150.249 167.318 163.872 191.851 163.872 191.851L166.493 189.389C166.493 189.389 159.662 168.624 153.672 158.088C153.268 157.496 152.986 156.831 152.841 156.13C152.419 152.842 152.4 143.218 150.921 139.877L141.888 142.93Z" fill="#FBD3CD"/>
<path d="M149.385 93.8783C149.385 93.9311 149.385 93.9791 149.385 94.0367C149.385 94.0367 149.385 94.0943 149.385 94.0367C149.342 94.5167 149.28 95.1455 149.212 95.8319C149.215 95.8446 149.215 95.8577 149.212 95.8703C148.732 100.56 147.772 108.883 147.864 112.925C147.871 112.982 147.871 113.04 147.864 113.098C147.858 113.212 147.837 113.325 147.801 113.434C147.709 113.731 147.535 113.998 147.299 114.202C147.063 114.406 146.775 114.541 146.467 114.59C144.918 114.849 143.355 115.017 141.787 115.094H141.417C141.439 114.969 141.449 114.842 141.446 114.715C141.44 114.455 141.376 114.199 141.259 113.966C140.136 113.966 139.008 113.966 137.961 113.966H137.563C135.388 113.928 133.579 113.842 132.792 113.798C132.794 113.845 132.794 113.891 132.792 113.938C132.776 113.892 132.763 113.845 132.753 113.798C132.74 113.75 132.732 113.7 132.729 113.65C132.441 110.331 131.822 107.049 130.881 103.853C130.401 101.971 130.051 100.493 130.281 98.8367C130.66 96.1247 131.649 94.2527 131.678 93.3455C131.688 93.0447 131.778 92.7522 131.941 92.4987C132.103 92.2452 132.331 92.0403 132.6 91.9055C133.022 91.6835 133.462 91.4957 133.915 91.3439C134.769 91.1001 135.645 90.9394 136.531 90.8639V90.8879L136.728 91.6415L136.761 91.6847L137.721 92.9423L138.004 93.0047L139.224 93.2639L140.544 93.0191L140.764 92.9807L142.598 91.7999L143.275 91.2527L143.356 91.1663L143.4 91.1327C144.983 91.37 146.554 91.6904 148.104 92.0927C148.497 92.1849 148.844 92.4167 149.08 92.745C149.315 93.0734 149.424 93.476 149.385 93.8783Z" fill="#494D4F"/>
<path d="M142.608 91.0559C141.355 89.8127 141.677 84.0623 141.677 84.0623L138.192 86.5823C138.192 86.5823 138.081 90.1343 137.232 90.8447C137.04 91.0127 136.752 90.8831 136.502 90.9071L136.742 91.8047L137.438 92.9039L138.369 93.5279L139.713 93.4895L140.913 93.1103L142.267 92.1071L143.366 91.1471C143.145 91.1279 142.79 91.2335 142.608 91.0559Z" fill="#EEC8C0"/>
<path opacity="0.1" d="M137.971 87.5711C140.304 87.2399 141.331 85.9919 141.811 85.0175L141.681 84.0575L138.197 86.5775L137.971 87.5711Z" fill="black"/>
<path d="M135.23 194.817L139.713 194.558C139.795 194.553 139.877 194.576 139.944 194.623C140.011 194.67 140.06 194.739 140.083 194.817L141.1 198.417C141.123 198.493 141.131 198.573 141.122 198.651C141.114 198.73 141.09 198.806 141.052 198.875C141.014 198.944 140.963 199.005 140.901 199.054C140.839 199.104 140.768 199.14 140.692 199.161C140.652 199.175 140.61 199.183 140.568 199.185C138.95 199.253 137.51 199.243 135.499 199.363C133.123 199.502 133.742 199.752 130.953 199.953C129.273 200.073 128.856 198.177 129.566 198.033C132.801 197.433 133.084 196.43 134.275 195.187C134.537 194.951 134.877 194.819 135.23 194.817Z" fill="#263238"/>
<path d="M163.613 190.229L166.109 188.27C166.173 188.219 166.252 188.191 166.334 188.191C166.416 188.191 166.496 188.219 166.56 188.27L169.257 190.776C169.32 190.823 169.374 190.882 169.414 190.95C169.454 191.018 169.48 191.093 169.491 191.171C169.503 191.249 169.498 191.328 169.479 191.405C169.459 191.481 169.425 191.553 169.377 191.616C169.353 191.651 169.324 191.683 169.291 191.712C168.043 192.739 167.625 192.931 166.094 194.237C164.285 195.778 164.928 195.605 162.825 197.448C161.558 198.557 160.08 197.299 160.565 196.766C162.787 194.333 162.878 192.83 163.08 191.122C163.14 190.768 163.33 190.45 163.613 190.229Z" fill="#263238"/>
<path d="M148.545 114.24C148.373 113.942 148.195 113.659 148.003 113.381C147.946 113.284 147.882 113.19 147.811 113.102C147.744 113.002 147.677 112.901 147.605 112.81L132.585 112.008C132.585 112.008 132.657 112.704 132.72 113.827C133.507 113.87 135.317 113.957 137.491 113.995H137.889C138.936 113.995 140.064 113.995 141.187 113.995C141.304 114.228 141.368 114.484 141.374 114.744C141.377 114.871 141.367 114.998 141.345 115.123C141.29 115.426 141.16 115.71 140.966 115.949C140.045 115.997 139.109 116.03 138.206 116.059H137.726C136.075 116.13 134.421 116.104 132.773 115.982C132.816 118.078 132.696 120.174 132.413 122.251C131.237 130.282 130.761 140.458 131.841 147.293V147.36C131.841 147.442 131.87 147.518 131.889 147.6C134.903 148.097 137.957 148.296 141.009 148.195C141.9 148.176 142.788 148.101 143.669 147.97C146.285 147.595 148.992 147.811 152.059 146.078C152.117 146.064 154.809 124.896 148.545 114.24Z" fill="#494D4F"/>
<path d="M141.393 114.744C141.396 114.871 141.386 114.998 141.365 115.123C141.309 115.426 141.179 115.71 140.985 115.949C140.064 115.997 139.128 116.03 138.225 116.059H137.745C136.094 116.13 134.44 116.104 132.792 115.982C132.792 115.224 132.758 114.542 132.725 113.957C132.727 113.91 132.727 113.864 132.725 113.818C133.512 113.861 135.321 113.947 137.496 113.986H137.894C138.941 113.986 140.069 113.986 141.192 113.986C141.315 114.22 141.384 114.479 141.393 114.744Z" fill="#263238"/>
<path d="M149.184 115.421C149.184 115.421 145.373 115.738 141.441 115.901L140.985 115.925C141.179 115.686 141.309 115.402 141.365 115.099C141.386 114.974 141.396 114.847 141.393 114.72C141.387 114.46 141.323 114.204 141.206 113.971H141.6C143.661 113.961 145.718 113.779 147.749 113.429C147.835 113.429 147.921 113.39 148.003 113.371L148.229 113.318C148.436 113.923 148.694 114.51 149.001 115.07L149.184 115.421Z" fill="#263238"/>
<path d="M136.488 90.8159C136.488 90.8159 137.76 95.3807 143.405 91.1663C143.405 91.1663 137.582 98.1743 136.488 90.8159Z" fill="#03045E"/>
<path opacity="0.5" d="M136.488 90.8159C136.488 90.8159 137.76 95.3807 143.405 91.1663C143.405 91.1663 137.582 98.1743 136.488 90.8159Z" fill="black"/>
<path d="M138.389 93.5279C138.49 93.5136 138.592 93.5207 138.69 93.5488C138.789 93.5769 138.879 93.6254 138.957 93.691C139.035 93.7567 139.099 93.8381 139.143 93.9299C139.188 94.0217 139.212 94.1218 139.215 94.2238C139.218 94.3257 139.2 94.4271 139.161 94.5214C139.122 94.6157 139.064 94.7007 138.99 94.771C138.916 94.8412 138.828 94.895 138.732 94.929C138.636 94.9629 138.534 94.9762 138.432 94.9679L138.389 93.5279Z" fill="white"/>
<path d="M143.035 80.3423C142.368 83.3183 142.147 84.5855 140.385 85.8815C137.731 87.8351 134.222 86.3615 133.982 83.2511C133.776 80.4479 134.899 76.0511 138.033 75.3359C138.723 75.1739 139.443 75.1909 140.125 75.3852C140.807 75.5795 141.428 75.9446 141.929 76.4461C142.43 76.9476 142.794 77.5687 142.988 78.2505C143.181 78.9324 143.198 79.6524 143.035 80.3423Z" fill="#EEC8C0"/>
<path d="M138.12 80.3567C138.077 80.6015 137.913 80.7791 137.76 80.7551C137.606 80.7311 137.501 80.5103 137.539 80.2751C137.577 80.0399 137.741 79.8527 137.899 79.8767C138.057 79.9007 138.144 80.1215 138.12 80.3567Z" fill="#263238"/>
<path d="M135.355 79.9199C135.312 80.1695 135.153 80.3423 134.995 80.3183C134.837 80.2943 134.736 80.0735 134.774 79.8383C134.813 79.6031 134.976 79.4159 135.134 79.4447C135.293 79.4735 135.393 79.6799 135.355 79.9199Z" fill="#263238"/>
<path d="M135.201 79.4591L134.645 79.1951C134.645 79.1951 134.87 79.7039 135.201 79.4591Z" fill="#263238"/>
<path d="M136.137 80.5007C135.83 81.031 135.451 81.5157 135.009 81.9407C135.121 82.0496 135.254 82.1331 135.401 82.1853C135.548 82.2375 135.704 82.2572 135.859 82.2431L136.137 80.5007Z" fill="#ED893E"/>
<path d="M139.305 79.9823C139.274 79.982 139.245 79.9721 139.22 79.954C139.195 79.936 139.176 79.9106 139.166 79.8815C139.065 79.667 138.921 79.4756 138.743 79.3195C138.564 79.1633 138.355 79.0458 138.129 78.9743C138.092 78.9622 138.061 78.9357 138.043 78.9006C138.025 78.8655 138.021 78.8247 138.033 78.7871C138.044 78.751 138.069 78.7207 138.102 78.7028C138.136 78.6848 138.175 78.6806 138.211 78.6911C138.483 78.7746 138.734 78.9161 138.946 79.1058C139.158 79.2956 139.327 79.5291 139.44 79.7903C139.446 79.8083 139.448 79.8272 139.446 79.846C139.444 79.8648 139.439 79.8831 139.43 79.8997C139.421 79.9163 139.409 79.931 139.394 79.9427C139.379 79.9544 139.362 79.963 139.344 79.9679C139.333 79.9763 139.319 79.9813 139.305 79.9823Z" fill="#263238"/>
<path d="M134.731 78.5135C134.705 78.5129 134.679 78.5055 134.656 78.4921C134.633 78.4786 134.615 78.4596 134.601 78.4367C134.584 78.4033 134.579 78.3644 134.589 78.3278C134.599 78.2913 134.622 78.2598 134.654 78.2399C134.852 78.1156 135.078 78.0414 135.311 78.0238C135.545 78.0063 135.779 78.0458 135.993 78.1391C136.01 78.1468 136.025 78.1578 136.038 78.1715C136.05 78.1851 136.06 78.2011 136.066 78.2186C136.073 78.236 136.075 78.2545 136.074 78.273C136.073 78.2915 136.069 78.3096 136.061 78.3263C136.052 78.3433 136.041 78.3586 136.027 78.371C136.013 78.3835 135.996 78.3929 135.978 78.3987C135.96 78.4046 135.941 78.4067 135.922 78.405C135.903 78.4032 135.885 78.3977 135.869 78.3887C135.699 78.3199 135.516 78.2922 135.334 78.3081C135.152 78.324 134.977 78.3828 134.822 78.4799C134.796 78.501 134.764 78.5128 134.731 78.5135Z" fill="#263238"/>
<path d="M137.966 79.9151L137.409 79.6559C137.409 79.6559 137.635 80.1599 137.966 79.9151Z" fill="#263238"/>
<path d="M144.849 82.1951C143.289 83.2607 143.141 85.4879 141.657 86.6543C141.293 85.6319 141.873 83.9855 142.137 82.7759C142.186 82.6475 142.186 82.5059 142.137 82.3775C142.017 82.1807 141.686 82.2287 141.537 82.4111C141.416 82.6133 141.361 82.8481 141.379 83.0831C141.331 82.9679 141.288 82.8527 141.245 82.7423C141.139 83.2223 141.043 83.6591 140.937 84.1151C140.878 83.7616 140.855 83.4029 140.87 83.0447C140.886 82.7837 140.951 82.528 141.062 82.2911C136.881 71.8319 137.385 72.6527 141.897 73.1711C143.769 73.3871 145.339 74.9327 145.872 76.7471C146.405 78.5615 146.985 80.7503 144.849 82.1951Z" fill="#263238"/>
<path d="M143.481 82.7807C143.205 83.2896 142.74 83.6691 142.185 83.8367C141.451 84.0479 141.072 83.3903 141.269 82.6847C141.456 82.0511 142.056 81.1823 142.8 81.2447C142.963 81.2694 143.118 81.3347 143.25 81.4347C143.382 81.5347 143.487 81.6662 143.554 81.8172C143.622 81.9681 143.651 82.1337 143.638 82.2987C143.626 82.4636 143.572 82.6228 143.481 82.7615V82.7807Z" fill="#EEC8C0"/>
<path d="M135.633 83.3279C135.71 83.7239 135.758 84.125 135.777 84.5279L135.993 84.5519C136.953 84.6527 137.433 84.3791 137.673 84.0479C137.776 83.8886 137.842 83.7081 137.865 83.5199C137.881 83.4085 137.881 83.2953 137.865 83.1839C137.246 83.3829 136.592 83.4499 135.945 83.3807L135.633 83.3279Z" fill="#2E353A"/>
<path d="M135.945 83.3567L135.993 83.7071C136.901 83.7983 137.553 83.7455 137.865 83.4959C137.881 83.3845 137.881 83.2713 137.865 83.1599C137.246 83.3589 136.592 83.4259 135.945 83.3567Z" fill="white"/>
<path d="M135.993 84.5519C136.953 84.6527 137.433 84.3791 137.673 84.0479C137.307 84.0183 136.938 84.0524 136.584 84.1487C136.349 84.2174 136.143 84.3585 135.993 84.5519Z" fill="#DE5753"/>
<path d="M142.137 83.5631L141.811 85.1711L142.013 85.5887L142.363 85.1519L142.137 83.5631Z" fill="#03045E"/>
<path d="M149.385 94.6991C149.284 95.4033 149.146 96.1019 148.973 96.7919C145.248 108.091 140.078 107.89 138.71 105.6C137.832 105.274 138.312 92.4335 137.75 89.8559L139.905 89.1791C140.385 90.2735 141.369 102.658 142.262 100.805C142.742 99.8447 144.259 96.7055 144.509 95.6543C144.698 94.8373 145.143 94.1018 145.778 93.5539C146.413 93.006 147.205 92.6742 148.041 92.6063C148.477 92.7389 148.852 93.0223 149.098 93.4057C149.344 93.7891 149.446 94.2475 149.385 94.6991Z" fill="#FBD3CD"/>
<path d="M139.353 91.2239C137.553 91.6223 135.849 90.2159 135.849 90.2159L138.062 86.0495L139.925 89.4623L139.353 91.2239Z" fill="#FBD3CD"/>
<path d="M138.072 86.0495L135.859 90.2159L133.55 87.6863L134.635 84.2927L138.072 86.0495Z" fill="#FBD3CD"/>
<path d="M138.878 73.0655C137.609 73.3917 136.462 74.08 135.578 75.0465C134.693 76.0129 134.109 77.2159 133.896 78.5087C134.529 78.3887 134.813 78.8351 135.437 78.9887C135.976 77.9166 136.846 77.0466 137.918 76.5071C138.209 77.2783 138.499 78.0543 138.787 78.8351C138.945 79.2575 139.166 80.2175 139.166 80.2175C139.782 80.2402 140.396 80.3027 141.005 80.4047C141.005 80.4047 141.806 77.2991 141.048 75.2255C140.726 74.3423 140.333 73.4063 139.526 72.9263L138.878 73.0655Z" fill="#263238"/>
<path d="M144.164 113.488L143.295 113.506L143.355 116.423L144.224 116.406L144.164 113.488Z" fill="#03045E"/>
<path d="M135.39 113.673L134.521 113.691L134.582 116.609L135.45 116.591L135.39 113.673Z" fill="#03045E"/>
<path d="M140.909 113.957C140.739 113.522 140.442 113.148 140.057 112.885C139.671 112.621 139.215 112.481 138.749 112.481C138.282 112.481 137.826 112.621 137.44 112.885C137.055 113.148 136.758 113.522 136.589 113.957L136.526 114.12H137.174L137.208 114.053C137.345 113.77 137.557 113.531 137.821 113.362C138.086 113.192 138.391 113.099 138.705 113.093C139.033 113.085 139.357 113.172 139.637 113.342C139.918 113.512 140.144 113.758 140.289 114.053C140.396 114.271 140.453 114.51 140.457 114.754C140.459 114.873 140.45 114.992 140.429 115.109C140.371 115.39 140.248 115.653 140.069 115.877C139.914 116.066 139.72 116.22 139.5 116.329C139.281 116.437 139.041 116.497 138.796 116.505C138.551 116.513 138.308 116.468 138.082 116.374C137.856 116.279 137.653 116.138 137.486 115.958L137.453 115.915H136.709L136.838 116.098C137.059 116.414 137.355 116.671 137.699 116.844C138.044 117.017 138.427 117.102 138.812 117.09C139.198 117.078 139.574 116.97 139.908 116.776C140.241 116.582 140.521 116.307 140.721 115.978C140.886 115.715 140.992 115.42 141.033 115.114C141.058 114.984 141.068 114.852 141.062 114.72C141.057 114.458 141.005 114.2 140.909 113.957Z" fill="white"/>
<g opacity="0.8">
<path d="M128.985 135.806H81.2686C80.706 135.816 80.1476 135.707 79.6306 135.484C79.1137 135.262 78.65 134.932 78.2704 134.517C77.8908 134.101 77.604 133.61 77.4291 133.075C77.2542 132.54 77.1951 131.974 77.2558 131.414L78.8254 113.381C78.9467 112.187 79.503 111.08 80.3882 110.27C81.2734 109.46 82.4257 109.004 83.6254 108.989H131.347C131.91 108.979 132.468 109.088 132.984 109.311C133.501 109.533 133.965 109.863 134.344 110.279C134.723 110.694 135.009 111.186 135.184 111.721C135.358 112.256 135.416 112.822 135.355 113.381L133.776 131.414C133.654 132.606 133.099 133.711 132.216 134.521C131.333 135.331 130.183 135.788 128.985 135.806Z" fill="#03045E"/>
<path opacity="0.5" d="M128.985 135.806H81.2686C80.706 135.816 80.1476 135.707 79.6306 135.484C79.1137 135.262 78.65 134.932 78.2704 134.517C77.8908 134.101 77.604 133.61 77.4291 133.075C77.2542 132.54 77.1951 131.974 77.2558 131.414L78.8254 113.381C78.9467 112.187 79.503 111.08 80.3882 110.27C81.2734 109.46 82.4257 109.004 83.6254 108.989H131.347C131.91 108.979 132.468 109.088 132.984 109.311C133.501 109.533 133.965 109.863 134.344 110.279C134.723 110.694 135.009 111.186 135.184 111.721C135.358 112.256 135.416 112.822 135.355 113.381L133.776 131.414C133.654 132.606 133.099 133.711 132.216 134.521C131.333 135.331 130.183 135.788 128.985 135.806Z" fill="white"/>
</g>
<path d="M91.8285 132.528H87.8541C87.7996 132.529 87.7455 132.518 87.6955 132.497C87.6454 132.475 87.6007 132.443 87.5642 132.402C87.5278 132.362 87.5005 132.314 87.4843 132.262C87.468 132.21 87.4632 132.155 87.4701 132.101L89.1357 113.064C89.1488 112.946 89.205 112.837 89.2937 112.758C89.3823 112.679 89.497 112.636 89.6157 112.637H93.5853C93.64 112.636 93.6942 112.646 93.7445 112.668C93.7947 112.69 93.8397 112.722 93.8765 112.762C93.9133 112.803 93.9411 112.851 93.9579 112.903C93.9747 112.955 93.9803 113.01 93.9741 113.064L92.3085 132.101C92.2954 132.219 92.2392 132.328 92.1505 132.407C92.0619 132.485 91.9472 132.529 91.8285 132.528Z" fill="white"/>
<path d="M124.368 132.528H120.398C120.344 132.529 120.289 132.518 120.239 132.497C120.189 132.475 120.144 132.443 120.107 132.403C120.07 132.362 120.043 132.314 120.026 132.262C120.009 132.21 120.003 132.155 120.01 132.101L121.675 113.064C121.688 112.946 121.744 112.837 121.833 112.758C121.922 112.679 122.036 112.636 122.155 112.637H126.13C126.184 112.636 126.238 112.648 126.287 112.67C126.337 112.691 126.381 112.724 126.418 112.764C126.454 112.804 126.481 112.852 126.498 112.904C126.514 112.955 126.52 113.01 126.514 113.064L124.848 132.101C124.835 132.219 124.779 132.328 124.69 132.407C124.601 132.485 124.487 132.529 124.368 132.528Z" fill="white"/>
<path d="M108.662 132.528H104.693C104.638 132.529 104.584 132.518 104.533 132.497C104.483 132.475 104.438 132.443 104.401 132.403C104.364 132.362 104.337 132.314 104.32 132.262C104.303 132.21 104.298 132.155 104.304 132.101L105.398 119.621C105.411 119.503 105.467 119.394 105.556 119.315C105.645 119.236 105.759 119.193 105.878 119.194H109.848C109.902 119.193 109.957 119.203 110.007 119.225C110.057 119.246 110.102 119.279 110.139 119.319C110.176 119.36 110.204 119.407 110.22 119.459C110.237 119.511 110.243 119.566 110.237 119.621L109.142 132.101C109.129 132.219 109.073 132.328 108.984 132.407C108.895 132.485 108.781 132.529 108.662 132.528Z" fill="white"/>
<path d="M100.315 132.528H96.3453C96.2907 132.529 96.2364 132.518 96.1862 132.497C96.1359 132.475 96.0909 132.443 96.0541 132.403C96.0173 132.362 95.9896 132.314 95.9727 132.262C95.9559 132.21 95.9504 132.155 95.9565 132.101L96.7725 122.822C96.7856 122.704 96.8419 122.596 96.9305 122.517C97.0192 122.438 97.1339 122.394 97.2525 122.395H101.222C101.277 122.394 101.331 122.405 101.381 122.426C101.432 122.448 101.477 122.48 101.513 122.521C101.55 122.561 101.578 122.609 101.595 122.661C101.612 122.713 101.617 122.768 101.611 122.822L100.8 132.101C100.787 132.22 100.73 132.329 100.64 132.408C100.55 132.487 100.434 132.53 100.315 132.528Z" fill="white"/>
<path d="M116.515 132.528H112.545C112.491 132.529 112.436 132.518 112.386 132.497C112.336 132.475 112.291 132.443 112.254 132.403C112.217 132.362 112.19 132.314 112.173 132.262C112.156 132.21 112.15 132.155 112.156 132.101L112.286 130.608C112.299 130.49 112.355 130.381 112.444 130.302C112.533 130.223 112.647 130.18 112.766 130.181H116.745C116.8 130.18 116.854 130.19 116.904 130.212C116.955 130.234 117 130.266 117.037 130.306C117.073 130.347 117.101 130.395 117.118 130.447C117.135 130.499 117.14 130.554 117.134 130.608L117 132.101C116.987 132.22 116.93 132.329 116.84 132.408C116.75 132.487 116.634 132.53 116.515 132.528Z" fill="white"/>
<path opacity="0.3" d="M124.31 111.36C124.2 111.315 124.077 111.313 123.965 111.354C123.854 111.395 123.761 111.476 123.705 111.581L116.347 126.341C116.317 126.415 116.267 126.478 116.203 126.525C116.139 126.572 116.063 126.6 115.983 126.606C115.904 126.612 115.825 126.596 115.754 126.559C115.683 126.522 115.624 126.467 115.584 126.398L109.824 115.032C109.796 114.982 109.759 114.938 109.713 114.903C109.667 114.868 109.615 114.844 109.559 114.831C109.503 114.819 109.445 114.818 109.389 114.829C109.333 114.841 109.28 114.864 109.233 114.898L101.419 119.846C101.353 119.887 101.276 119.909 101.198 119.909C101.12 119.909 101.044 119.887 100.977 119.846L89.8654 113.438C89.8125 113.411 89.7547 113.394 89.6954 113.39C89.636 113.385 89.5763 113.392 89.5196 113.41C89.463 113.428 89.4105 113.457 89.3652 113.496C89.3199 113.535 89.2828 113.582 89.2558 113.635L89.227 113.683C89.2007 113.73 89.1839 113.782 89.1776 113.835C89.1713 113.889 89.1757 113.943 89.1904 113.995C89.2051 114.046 89.2299 114.095 89.2634 114.137C89.2969 114.179 89.3383 114.214 89.3854 114.24L100.905 120.917C100.972 120.957 101.049 120.977 101.126 120.977C101.204 120.977 101.28 120.957 101.347 120.917L108.849 116.165C108.896 116.133 108.949 116.111 109.005 116.1C109.061 116.089 109.119 116.09 109.174 116.103C109.229 116.116 109.282 116.14 109.327 116.173C109.373 116.207 109.411 116.25 109.44 116.299L115.541 128.299C115.582 128.366 115.641 128.421 115.711 128.457C115.781 128.493 115.86 128.509 115.938 128.503C116.017 128.498 116.092 128.471 116.157 128.426C116.221 128.381 116.272 128.318 116.304 128.246L124.464 111.898C124.514 111.806 124.526 111.698 124.497 111.597C124.468 111.497 124.401 111.411 124.31 111.36Z" fill="black"/>
</svg>
