<svg width="56" height="56" viewBox="0 0 56 56" fill="none" xmlns="http://www.w3.org/2000/svg">
<g id="business-and-finance 1" clip-path="url(#clip0_2140_25355)">
<path id="Vector" d="M3.73328 44.65H3.58328V44.8V46.6667V46.8167H3.73328H27.9999H28.1499V46.6667V44.8V44.65H27.9999H3.73328Z" fill="black" stroke="black" stroke-width="0.3"/>
<path id="Vector_2" d="M12.9167 50.4001C12.9167 52.0292 14.2375 53.3501 15.8667 53.3501C17.4958 53.3501 18.8166 52.0292 18.8166 50.4001C18.8166 48.771 17.4958 47.4501 15.8667 47.4501C14.2375 47.4501 12.9167 48.771 12.9167 50.4001ZM15.0833 50.4001C15.0833 49.9675 15.4341 49.6168 15.8667 49.6168C16.2992 49.6168 16.65 49.9675 16.65 50.4001C16.65 50.8327 16.2992 51.1834 15.8667 51.1834C15.4341 51.1834 15.0833 50.8327 15.0833 50.4001Z" fill="black" stroke="black" stroke-width="0.3"/>
<path id="Vector_3" d="M4.66667 2.01667H6.38333V2.8C6.38333 4.42913 7.7042 5.75 9.33333 5.75H22.4C24.0291 5.75 25.35 4.42913 25.35 2.8V2.01667H27.0667C28.5301 2.01667 29.7167 3.20322 29.7167 4.66667V11.2V11.35H29.8667H31.7333H31.8833V11.2V4.66667V4.66648C31.88 2.00755 29.7258 -0.146707 27.0669 -0.15H27.0667L4.66667 -0.15L4.66648 -0.15C2.00755 -0.146707 -0.146707 2.00755 -0.15 4.66648V4.66667L-0.15 51.3333L-0.15 51.3335C-0.146707 53.9925 2.00755 56.1467 4.66648 56.15H4.66667H27.0667H27.0669C29.7258 56.1467 31.88 53.9925 31.8833 51.3335V51.3333V29.8667V29.7167H31.7333H29.8667H29.7167V29.8667V51.3333C29.7167 52.7968 28.5301 53.9833 27.0667 53.9833H4.66667C3.20322 53.9833 2.01667 52.7968 2.01667 51.3333V4.66667C2.01667 3.20322 3.20322 2.01667 4.66667 2.01667ZM8.55 2.01667H23.1833V2.8C23.1833 3.23259 22.8326 3.58333 22.4 3.58333H9.33333C8.90075 3.58333 8.55 3.23259 8.55 2.8V2.01667Z" fill="black" stroke="black" stroke-width="0.3"/>
<path id="Vector_4" d="M13.0667 12.9167H12.9167V13.0667V28V28.15H13.0667H56H56.15V28V13.0667V12.9167H56H13.0667ZM53.9833 25.9833H15.0833V15.0833H53.9833V25.9833Z" fill="#00678F" stroke="#00678F" stroke-width="0.3"/>
<path id="Vector_5" d="M17.6372 23.2835L17.7122 23.4134L17.8421 23.3384L19.45 22.4097V24.2667V24.4167H19.6H21.4667H21.6167V24.2667V22.4097L23.2246 23.3384L23.3545 23.4134L23.4295 23.2835L24.3629 21.6666L24.4379 21.5367L24.308 21.4617L22.7 20.5334L24.308 19.6051L24.4379 19.5301L24.3629 19.4002L23.4295 17.7833L23.3545 17.6533L23.2246 17.7284L21.6167 18.6571V16.8V16.65H21.4667H19.6H19.45V16.8V18.6571L17.8421 17.7284L17.7122 17.6533L17.6372 17.7833L16.7038 19.4002L16.6288 19.5301L16.7587 19.6051L18.3667 20.5334L16.7587 21.4617L16.6288 21.5367L16.7038 21.6666L17.6372 23.2835Z" fill="#00678F" stroke="#00678F" stroke-width="0.3"/>
<path id="Vector_6" d="M26.9705 23.2835L27.0455 23.4134L27.1755 23.3384L28.7834 22.4097V24.2667V24.4167H28.9334H30.8001H30.9501V24.2667V22.4097L32.558 23.3384L32.6879 23.4134L32.7629 23.2835L33.6962 21.6666L33.7712 21.5367L33.6413 21.4617L32.0334 20.5334L33.6413 19.6051L33.7712 19.5301L33.6962 19.4002L32.7629 17.7833L32.6879 17.6533L32.558 17.7284L30.9501 18.6571V16.8V16.65H30.8001H28.9334H28.7834V16.8V18.6571L27.1755 17.7284L27.0455 17.6533L26.9705 17.7833L26.0372 19.4002L25.9622 19.5301L26.0921 19.6051L27.7 20.5334L26.0921 21.4617L25.9622 21.5367L26.0372 21.6666L26.9705 23.2835Z" fill="#00678F" stroke="#00678F" stroke-width="0.3"/>
<path id="Vector_7" d="M36.3038 23.2835L36.3788 23.4134L36.5087 23.3384L38.1166 22.4097V24.2667V24.4167H38.2666H40.1333H40.2833V24.2667V22.4097L41.8912 23.3384L42.0212 23.4134L42.0962 23.2835L43.0295 21.6666L43.1045 21.5367L42.9746 21.4617L41.3667 20.5334L42.9746 19.6051L43.1045 19.5301L43.0295 19.4002L42.0962 17.7833L42.0212 17.6533L41.8912 17.7284L40.2833 18.6571V16.8V16.65H40.1333H38.2666H38.1166V16.8V18.6571L36.5087 17.7284L36.3788 17.6533L36.3038 17.7833L35.3705 19.4002L35.2955 19.5301L35.4254 19.6051L37.0333 20.5334L35.4254 21.4617L35.2955 21.5367L35.3705 21.6666L36.3038 23.2835Z" fill="#00678F" stroke="#00678F" stroke-width="0.3"/>
<path id="Vector_8" d="M45.6372 23.2835L45.7122 23.4134L45.8421 23.3384L47.45 22.4097V24.2667V24.4167H47.6H49.4667H49.6167V24.2667V22.4097L51.2246 23.3384L51.3545 23.4134L51.4295 23.2835L52.3629 21.6666L52.4379 21.5367L52.308 21.4617L50.7 20.5334L52.308 19.6051L52.4379 19.5301L52.3629 19.4002L51.4295 17.7833L51.3545 17.6533L51.2246 17.7284L49.6167 18.6571V16.8V16.65H49.4667H47.6H47.45V16.8V18.6571L45.8421 17.7284L45.7122 17.6533L45.6372 17.7833L44.7038 19.4002L44.6288 19.5301L44.7587 19.6051L46.3667 20.5334L44.7587 21.4617L44.6288 21.5367L44.7038 21.6666L45.6372 23.2835Z" fill="#00678F" stroke="#00678F" stroke-width="0.3"/>
</g>
<defs>
<clipPath id="clip0_2140_25355">
<rect width="56" height="56" fill="white"/>
</clipPath>
</defs>
</svg>
