<svg width="24" height="24" viewBox="0 0 24 24" fill="none" xmlns="http://www.w3.org/2000/svg">
<path d="M17.984 18.0921L16.3364 16.4446L15.6852 17.0958L15.196 13.9837L18.3081 14.4729L17.6569 15.1241L19.3045 16.7717L17.984 18.0921ZM10.8116 15.0131C7.81662 15.0131 5.50284 14.3078 4.2004 13.4796V6.25916L10.8026 12.8614L17.4048 6.25916V13.1194L15.3791 12.8013L13.7496 12.5433L14.0046 14.1728L14.0887 14.704C13.1254 14.896 12.024 15.0131 10.8116 15.0131ZM16.5555 5.40987L10.8026 11.1628L5.04971 5.40987H16.5555ZM20.1507 15.9284L19.3494 15.1271L20.8199 13.6566L18.6052 13.3085V4.20947H3V14.0948C4.54852 15.3612 7.4685 16.2135 10.8116 16.2135C12.039 16.2135 13.2094 16.0964 14.2778 15.8894L14.4969 17.2848L14.863 19.6136L16.3334 18.1431L17.1347 18.9414L17.984 19.7907L18.8333 18.9414L20.1507 17.6239L21 16.7747L20.1507 15.9284Z" fill="black"/>
</svg>
