<svg width="24" height="24" viewBox="0 0 24 24" fill="none" xmlns="http://www.w3.org/2000/svg">
<path d="M14.2494 6.87558H14.7494V6.37558V5.09998V4.68397L14.3403 4.60832C13.5705 4.46594 12.7901 4.38812 12.0074 4.37564L11.9999 4.37552L11.9924 4.37563C11.2089 4.38667 10.4278 4.46457 9.65756 4.60849L9.2494 4.68475V5.09998V6.37558V6.87558H9.7494H14.2494ZM11.9994 10.7416H11.4994V10.7428C8.67764 10.7027 6.06546 10.3243 3.875 9.70504V6.87558H8.2494H8.7494V6.37558V4.29283C9.8053 4.00249 10.8973 3.86145 11.9935 3.87435L11.9935 3.87448L12.0053 3.87435C13.1015 3.86145 14.1935 4.00249 15.2494 4.29283V6.37558V6.87558H15.7494H20.125V9.70019C17.8046 10.3559 15.0125 10.7416 11.9994 10.7416ZM14.2494 14.696H14.7494V14.196V13.1378C16.5656 13.004 18.3653 12.7011 20.125 12.2332V18.6302L3.875 18.6257V12.2332C5.63431 12.7012 7.43357 13.0041 9.2494 13.1378V14.196V14.696H9.7494H14.2494Z" stroke="black"/>
</svg>
