<svg width="24" height="24" viewBox="0 0 24 24" fill="none" xmlns="http://www.w3.org/2000/svg">
<path d="M13.801 4.78956H10.2003V5.98859H13.801V4.78956ZM12.746 18.5263C12.7028 18.1914 12.4328 17.9214 12.1015 17.8782C11.6118 17.8169 11.1977 18.231 11.2589 18.7207C11.3021 19.0556 11.5722 19.3256 11.9035 19.3689C12.3932 19.4301 12.8072 19.016 12.746 18.5263ZM16.2027 19.0412C15.0829 19.5345 13.657 19.8009 12.1123 19.8009C10.5604 19.8009 9.0301 19.5273 7.79865 19.0376V17.3921H16.1991V19.0412H16.2027ZM16.2027 16.1966H7.80226V7.77815H16.2027V16.1966ZM16.2027 6.57911H7.80226V4.97319C9.0193 4.47989 10.5208 4.20264 12.0331 4.20264C13.5454 4.20264 14.9965 4.47629 16.2027 4.98039V6.57911ZM17.4018 19.7793V4.22064C15.8282 3.38528 13.9163 3 12.0331 3C10.0491 3 8.09751 3.42488 6.59961 4.20264V19.8117C8.11191 20.5823 10.1175 21 12.1123 21C14.0387 21.0036 15.9543 20.6147 17.4018 19.7793Z" fill="#010202"/>
</svg>
