<svg width="24" height="24" viewBox="0 0 24 24" fill="none" xmlns="http://www.w3.org/2000/svg">
<path d="M15.5494 4.38129C16.5566 4.38129 17.4064 4.78417 18.0989 5.58993C18.8795 5.41727 19.6097 5.10791 20.2895 4.66187C20.0252 5.58273 19.5216 6.28777 18.7787 6.77698C19.4712 6.69065 20.1322 6.48921 20.7617 6.17266C20.6106 6.43165 20.4438 6.67986 20.2612 6.91727C20.0787 7.15468 19.8835 7.3777 19.6758 7.58633C19.468 7.79496 19.2509 7.99281 19.0243 8.17986C19.0368 8.35252 19.0431 8.51799 19.0431 8.67626C19.0431 9.52518 18.9456 10.3813 18.7504 11.2446C18.5553 12.1079 18.272 12.9496 17.9006 13.7698C17.5292 14.5899 17.0571 15.3525 16.4842 16.0576C15.9114 16.7626 15.2693 17.3813 14.558 17.9137C13.8466 18.446 13.0283 18.8633 12.1029 19.1655C11.1776 19.4676 10.1987 19.6187 9.16634 19.6187C7.24008 19.6187 5.4649 19.0432 3.8408 17.8921C3.97929 17.9065 4.11463 17.9209 4.24682 17.9353C4.37902 17.9496 4.52065 17.9568 4.67173 17.9568C6.28324 17.9568 7.71849 17.4029 8.97749 16.295C8.22209 16.2806 7.54853 16.0252 6.9568 15.5288C6.36508 15.0324 5.9559 14.3957 5.72929 13.6187C5.80483 13.6331 5.87722 13.6475 5.94646 13.6619C6.01571 13.6763 6.0881 13.6871 6.16364 13.6942C6.23918 13.7014 6.31472 13.705 6.39026 13.705C6.70501 13.705 7.00716 13.6547 7.29673 13.554C6.50357 13.3813 5.8426 12.9424 5.31382 12.2374C4.78504 11.5324 4.52065 10.7122 4.52065 9.77698V9.73381C5.01166 10.036 5.53414 10.1942 6.0881 10.2086C5.77335 9.97842 5.50267 9.70144 5.27605 9.3777C5.04943 9.05396 4.87002 8.68705 4.73783 8.27698C4.60563 7.86691 4.53954 7.44604 4.53954 7.01439C4.53954 6.66906 4.58045 6.33094 4.66229 6C4.74412 5.66906 4.86058 5.35971 5.01166 5.07194C5.88036 6.26619 6.93477 7.21583 8.17488 7.92086C9.41499 8.6259 10.7464 9.02158 12.169 9.10791C12.1061 8.82014 12.0746 8.52518 12.0746 8.22302C12.0746 7.15827 12.4145 6.2518 13.0944 5.5036C13.7743 4.7554 14.5926 4.38129 15.5494 4.38129ZM15.5494 3C14.3786 3 13.3525 3.43525 12.4712 4.30576C11.5899 5.17626 11.0737 6.2518 10.9226 7.53237C8.89565 7.07194 7.23378 5.95683 5.93702 4.18705C5.69781 3.85612 5.38936 3.69065 5.01166 3.69065L4.91724 3.71223C4.50177 3.74101 4.18702 3.95683 3.97299 4.35971C3.54493 5.17986 3.3309 6.06475 3.3309 7.01439C3.3309 7.63309 3.42533 8.23022 3.61418 8.80576C3.41274 9.07914 3.31202 9.38849 3.31202 9.73381V9.77698C3.31202 11.1439 3.72749 12.3309 4.55842 13.3381C4.53324 13.4532 4.5238 13.5719 4.53009 13.6942C4.53639 13.8165 4.55213 13.9353 4.57731 14.0504C4.85429 14.9856 5.32011 15.7698 5.97479 16.4029C5.76076 16.4604 5.54358 16.5036 5.32326 16.5324C5.10294 16.5612 4.88576 16.5755 4.67173 16.5755C4.41993 16.5755 4.18702 16.5612 3.97299 16.5324L3.8408 16.5108C3.57641 16.5108 3.34035 16.5971 3.13261 16.7698C2.92488 16.9424 2.77695 17.1655 2.68882 17.4388C2.60069 17.741 2.60384 18.0468 2.69826 18.3561C2.79268 18.6655 2.9595 18.8993 3.19871 19.0576C5.01166 20.3525 7.00087 21 9.16634 21C10.5009 21 11.7599 20.7734 12.9433 20.3201C14.1268 19.8669 15.1528 19.2446 16.0216 18.4532C16.8903 17.6619 17.6425 16.7518 18.2783 15.723C18.9141 14.6942 19.3988 13.5935 19.7324 12.4209C20.0661 11.2482 20.2392 10.0576 20.2518 8.84892C20.8183 8.31655 21.3093 7.70504 21.7248 7.01439C21.8129 6.89928 21.8759 6.76978 21.9136 6.6259C21.9514 6.48201 21.9703 6.33094 21.9703 6.17266C21.9703 5.69784 21.8003 5.32374 21.4604 5.05036C21.4982 4.86331 21.5108 4.68345 21.4982 4.51079C21.4856 4.33813 21.4415 4.16906 21.366 4.0036C21.2904 3.83813 21.1897 3.69784 21.0638 3.58273C20.8372 3.38129 20.5791 3.28058 20.2895 3.28058C20.2392 3.28058 20.1888 3.28417 20.1385 3.29137C20.0881 3.29856 20.0377 3.30935 19.9874 3.32374C19.937 3.33813 19.8867 3.35612 19.8363 3.3777C19.7859 3.39928 19.7356 3.42446 19.6852 3.45324C19.2949 3.72662 18.8732 3.93525 18.4199 4.07914C17.5638 3.35971 16.607 3 15.5494 3Z" fill="black"/>
</svg>
