<svg width="13" height="16" viewBox="0 0 13 16" fill="none" xmlns="http://www.w3.org/2000/svg">
<mask id="mask0" mask-type="alpha" maskUnits="userSpaceOnUse" x="0" y="0" width="13" height="16">
<path d="M0 0H12.5V16H0V0Z" fill="white"/>
</mask>
<g mask="url(#mask0)">
<path fill-rule="evenodd" clip-rule="evenodd" d="M11.4254 10.52C11.3294 11.263 11.0084 12.026 10.4954 12.728C10.0694 13.308 9.51738 13.838 8.97838 14.18C8.92491 14.2139 8.8709 14.2469 8.81638 14.279C8.86338 14.165 8.90438 14.046 8.94038 13.923C9.16738 13.148 9.13938 12.389 8.85238 11.533C8.59738 10.769 8.13838 9.926 7.36238 8.799L6.81238 7.999L6.45138 8.905C6.44738 8.915 6.01438 9.923 4.52938 10.805C3.59938 11.357 3.30938 12.085 3.22738 12.6C3.13638 13.182 3.26238 13.749 3.47238 14.217C3.31653 14.1296 3.16532 14.0341 3.01938 13.931C2.44409 13.53 1.96993 13.0008 1.63438 12.385C1.24338 11.66 1.04438 10.802 1.04438 9.834C1.04438 8.618 1.35638 7.603 1.97038 6.816C2.09038 6.662 2.21038 6.532 2.32438 6.424C2.37438 6.614 2.43738 6.823 2.51738 7.034C2.92438 8.113 3.56738 8.768 4.37638 8.93C4.47405 8.95019 4.57533 8.94407 4.66986 8.91226C4.76439 8.88046 4.84877 8.82412 4.91438 8.749C5.11038 8.525 5.08038 8.262 5.03838 7.897C4.98038 7.384 4.88238 6.527 5.19838 5.456C5.51938 4.366 6.19638 3.324 7.21538 2.35C7.25638 2.507 7.30938 2.679 7.37738 2.867C7.83738 4.132 8.75738 5.522 10.1174 6.996C11.1434 8.109 11.5834 9.294 11.4254 10.52ZM7.93938 13.622C7.79838 14.106 7.54438 14.462 7.18438 14.679C6.83438 14.89 6.45238 14.938 6.19438 14.938C5.98738 14.938 5.81638 14.905 5.72538 14.878C5.18838 14.715 4.95838 14.537 4.74338 14.289C4.44838 13.95 4.17038 13.329 4.25938 12.766C4.32538 12.348 4.59338 11.996 5.05638 11.721C5.99638 11.162 6.59238 10.547 6.94938 10.076C7.39938 10.787 7.69538 11.37 7.86438 11.876C8.08038 12.522 8.10438 13.061 7.93938 13.622ZM12.2454 8.494C11.9854 7.72 11.5254 6.972 10.8784 6.269C10.0424 5.362 8.93238 3.991 8.40038 2.615C8.10738 1.856 8.38338 0 8.38338 0L7.28338 0.89C5.69038 2.176 4.65238 3.61 4.19738 5.15C3.97532 5.90579 3.89132 6.69541 3.94938 7.481C3.75674 7.23736 3.60478 6.96417 3.49938 6.672C3.35235 6.2781 3.25037 5.86883 3.19538 5.452L3.11738 4.71L2.45338 5.028C2.38738 5.06 1.79138 5.36 1.19538 6.101C0.845382 6.536 0.567382 7.036 0.368382 7.587C0.11668 8.30873 -0.00783506 9.06868 0.000381655 9.833C0.000381655 12.521 1.31738 14.017 2.42238 14.8C3.02005 15.217 3.68079 15.5354 4.37938 15.743C4.89529 15.9018 5.43072 15.9883 5.97038 16C6.04505 16.0008 6.11972 16.0008 6.19438 16C6.27345 16.0003 6.35251 15.9976 6.43138 15.992C7.68938 15.942 8.58738 15.674 9.52938 15.077C10.2299 14.62 10.841 14.0388 11.3324 13.362C11.9524 12.515 12.3424 11.58 12.4614 10.658C12.5558 9.92971 12.4823 9.18947 12.2464 8.494" fill="#494D4F"/>
</g>
</svg>
