<svg width="24" height="24" viewBox="0 0 24 24" fill="none" xmlns="http://www.w3.org/2000/svg">
<path d="M6.28477 14.325C6.32039 13.9519 6.57164 13.6331 6.92602 13.5112C7.28227 13.3875 7.67602 13.4831 7.93477 13.755L11.0398 16.86L11.0398 4.79998C11.0379 4.76998 11.0379 4.73998 11.0398 4.70998C11.0641 4.17936 11.5141 3.77061 12.0448 3.79498C12.5754 3.81936 12.9841 4.26936 12.9598 4.79998L12.9598 16.86L16.0648 13.74C16.4416 13.3631 17.0529 13.3631 17.4298 13.74C17.8066 14.1169 17.8066 14.7281 17.4298 15.105L12.6748 19.845L11.9998 20.535L11.3248 19.845L6.56977 15.105C6.36164 14.9025 6.25664 14.6156 6.28477 14.325Z" fill="#494D4F"/>
</svg>
