<svg width="24" height="24" viewBox="0 0 24 24" fill="none" xmlns="http://www.w3.org/2000/svg">
<path d="M12.8824 5.03012H2.66423C2.23999 5.03012 1.89453 4.68466 1.89453 4.26042C1.89453 3.83618 2.23999 3.49072 2.66423 3.49072H12.8854C13.3097 3.49072 13.6551 3.83618 13.6551 4.26042C13.6521 4.68466 13.3066 5.03012 12.8824 5.03012ZM12.8824 12.7877H2.66423C2.23999 12.7877 1.89453 12.4422 1.89453 12.018C1.89453 11.5938 2.23999 11.2483 2.66423 11.2483H12.8854C13.3097 11.2483 13.6551 11.5938 13.6551 12.018C13.6521 12.4422 13.3066 12.7877 12.8824 12.7877ZM12.8824 20.5331H2.66423C2.23999 20.5331 1.89453 20.1877 1.89453 19.7634C1.89453 19.3392 2.23999 18.9937 2.66423 18.9937H12.8854C13.3097 18.9937 13.6551 19.3392 13.6551 19.7634C13.6551 20.1877 13.3066 20.5331 12.8824 20.5331ZM21.8582 15.4453C21.5582 15.1453 21.0703 15.1453 20.7703 15.4453L18.3157 17.8998V4.26648C18.3157 3.84224 17.9703 3.49678 17.546 3.49678C17.1218 3.49678 16.7763 3.84224 16.7763 4.26648V19.7695C16.7763 20.1937 17.1218 20.5392 17.546 20.5392C17.7339 20.5392 17.9066 20.4725 18.04 20.3604C18.0612 20.3422 21.8551 16.5362 21.8551 16.5362C22.1582 16.2362 22.1582 15.7453 21.8582 15.4453Z" fill="#494D4F"/>
</svg>
